<svg xmlns="http://www.w3.org/2000/svg" viewBox="0 0 256 256" width="512" height="512">
<defs>
      <linearGradient id="g1" x1="0%" y1="0%" x2="100%" y2="100%">
        <stop offset="0%" stop-color="#65ACF7"></stop><stop offset="100%" stop-color="#2C64F4"></stop>
      </linearGradient>
      <linearGradient id="g2" x1="100%" y1="100%" x2="0%" y2="0%">
        <stop offset="0%" stop-color="#65ACF7"></stop><stop offset="100%" stop-color="#2C64F4"></stop>
      </linearGradient>
    </defs>
<g transform="translate(37.54 2.08) scale(0.815)">
  <path fill="#4B94F6" d="M 84.51 110.17&#xA;Q 82.19 110.94 79.93 111.61&#xA;Q 77.35 112.38 75.23 112.60&#xA;C 72.68 112.86 69.86 113.38 67.91 113.35&#xA;Q 45.62 112.99 37.50 93.53&#xA;C 35.24 88.12 34.95 80.57 34.10 74.22&#xA;C 42.74 62.19 54.54 51.94 66.24 43.76&#xA;Q 81.87 32.84 99.33 26.33&#xA;C 114.02 20.86 128.75 20.82 139.30 33.08&#xA;Q 144.00 38.55 144.60 46.01&#xA;Q 145.86 61.56 134.35 71.36&#xA;Q 126.79 77.79 113.36 87.11&#xA;Q 103.77 93.76 89.97 104.74&#xA;Q 88.50 105.90 87.14 107.35&#xA;Q 85.71 108.88 84.51 110.17 Z"></path>
  <path fill="#2C64F4" d="M 34.10 74.22&#xA;C 34.95 80.57 35.24 88.12 37.50 93.53&#xA;Q 45.62 112.99 67.91 113.35&#xA;C 69.86 113.38 72.68 112.86 75.23 112.60&#xA;Q 77.35 112.38 79.93 111.61&#xA;Q 82.19 110.94 84.51 110.17&#xA;Q 84.64 112.82 86.80 114.51&#xA;Q 86.39 116.37 86.84 117.14&#xA;C 96.00 132.87 102.03 143.57 110.59 156.99&#xA;Q 114.86 163.69 120.14 172.57&#xA;Q 121.73 175.23 123.17 178.46&#xA;Q 124.39 181.20 125.85 184.52&#xA;Q 126.04 184.95 125.23 185.05&#xA;C 121.50 181.09 114.04 181.81 109.10 182.64&#xA;C 100.53 184.09 94.85 185.28 88.24 185.29&#xA;C 63.69 185.33 39.96 175.07 25.74 154.79&#xA;Q 15.03 139.53 15.58 120.25&#xA;C 16.07 102.88 23.26 87.67 34.10 74.22 Z"></path>
  <path fill="#65ACF7" d="M 188.46 144.01&#xA;Q 183.21 144.63 178.32 146.50&#xA;Q 174.10 148.12 169.42 151.85&#xA;Q 154.23 163.94 145.71 171.97&#xA;Q 135.61 181.49 131.16 185.17&#xA;Q 130.31 185.87 127.38 187.43&#xA;L 125.23 185.05&#xA;Q 126.04 184.95 125.85 184.52&#xA;Q 124.39 181.20 123.17 178.46&#xA;Q 121.73 175.23 120.14 172.57&#xA;Q 114.86 163.69 110.59 156.99&#xA;C 102.03 143.57 96.00 132.87 86.84 117.14&#xA;Q 86.39 116.37 86.80 114.51&#xA;C 94.03 116.67 102.55 115.75 110.02 114.93&#xA;Q 121.74 113.64 122.74 113.61&#xA;C 138.81 113.09 155.46 116.83 168.99 125.44&#xA;C 176.50 130.23 183.82 136.32 188.46 144.01 Z"></path>
  <path fill="#4B94F6" d="M 188.46 144.01&#xA;Q 192.88 149.93 196.32 159.14&#xA;C 206.70 186.89 193.90 215.07 174.58 235.40&#xA;Q 154.12 256.95 128.01 271.71&#xA;C 115.09 279.02 101.69 285.74 86.69 287.10&#xA;Q 69.70 288.63 59.38 277.21&#xA;C 51.92 268.97 51.81 259.75 54.41 249.46&#xA;C 56.17 242.48 62.33 235.71 67.89 231.38&#xA;C 71.83 228.31 78.10 223.99 83.79 220.38&#xA;Q 93.91 213.95 113.02 199.76&#xA;Q 121.98 193.10 127.38 187.43&#xA;Q 130.31 185.87 131.16 185.17&#xA;Q 135.61 181.49 145.71 171.97&#xA;Q 154.23 163.94 169.42 151.85&#xA;Q 174.10 148.12 178.32 146.50&#xA;Q 183.21 144.63 188.46 144.01 Z"></path>
</g>
</svg>